<mxfile host="65bd71144e">
    <diagram id="-8NWkFbTctjerC9u7evy" name="Página-1">
        <mxGraphModel dx="492" dy="225" grid="1" gridSize="10" guides="1" tooltips="1" connect="1" arrows="1" fold="1" page="1" pageScale="1" pageWidth="827" pageHeight="1169" math="0" shadow="0">
            <root>
                <mxCell id="0"/>
                <mxCell id="1" parent="0"/>
                <mxCell id="IKMS28P7SB1SvwKWcjxu-27" value="" style="group" parent="1" vertex="1" connectable="0">
                    <mxGeometry x="70" y="110" width="260" height="230" as="geometry"/>
                </mxCell>
                <mxCell id="IKMS28P7SB1SvwKWcjxu-1" value="" style="shape=folder;fontStyle=1;spacingTop=10;tabWidth=170;tabHeight=40;tabPosition=left;html=1;" parent="IKMS28P7SB1SvwKWcjxu-27" vertex="1">
                    <mxGeometry width="260" height="230" as="geometry"/>
                </mxCell>
                <mxCell id="IKMS28P7SB1SvwKWcjxu-2" value="django.contrib.auth" style="text;html=1;strokeColor=none;fillColor=none;align=center;verticalAlign=middle;whiteSpace=wrap;rounded=0;fontSize=17;fontStyle=1" parent="IKMS28P7SB1SvwKWcjxu-27" vertex="1">
                    <mxGeometry x="10" y="10" width="150" height="20" as="geometry"/>
                </mxCell>
                <mxCell id="IKMS28P7SB1SvwKWcjxu-3" value="usuario" style="swimlane;fontStyle=1;align=center;verticalAlign=top;childLayout=stackLayout;horizontal=1;startSize=30;horizontalStack=0;resizeParent=1;resizeParentMax=0;resizeLast=0;collapsible=1;marginBottom=0;fontSize=15;" parent="IKMS28P7SB1SvwKWcjxu-27" vertex="1">
                    <mxGeometry x="35" y="70" width="190" height="124" as="geometry"/>
                </mxCell>
                <mxCell id="IKMS28P7SB1SvwKWcjxu-4" value="- username: CharField&#10;- password: CharField&#10;- email: CharField" style="text;strokeColor=none;fillColor=none;align=left;verticalAlign=top;spacingLeft=4;spacingRight=4;overflow=hidden;rotatable=0;points=[[0,0.5],[1,0.5]];portConstraint=eastwest;" parent="IKMS28P7SB1SvwKWcjxu-3" vertex="1">
                    <mxGeometry y="30" width="190" height="60" as="geometry"/>
                </mxCell>
                <mxCell id="IKMS28P7SB1SvwKWcjxu-5" value="" style="line;strokeWidth=1;fillColor=none;align=left;verticalAlign=middle;spacingTop=-1;spacingLeft=3;spacingRight=3;rotatable=0;labelPosition=right;points=[];portConstraint=eastwest;" parent="IKMS28P7SB1SvwKWcjxu-3" vertex="1">
                    <mxGeometry y="90" width="190" height="8" as="geometry"/>
                </mxCell>
                <mxCell id="IKMS28P7SB1SvwKWcjxu-6" value="+ __str__" style="text;strokeColor=none;fillColor=none;align=left;verticalAlign=top;spacingLeft=4;spacingRight=4;overflow=hidden;rotatable=0;points=[[0,0.5],[1,0.5]];portConstraint=eastwest;" parent="IKMS28P7SB1SvwKWcjxu-3" vertex="1">
                    <mxGeometry y="98" width="190" height="26" as="geometry"/>
                </mxCell>
                <mxCell id="IKMS28P7SB1SvwKWcjxu-28" value="" style="endArrow=diamondThin;endFill=1;endSize=24;html=1;fontSize=17;entryX=0.995;entryY=0.343;entryDx=0;entryDy=0;entryPerimeter=0;exitX=-0.001;exitY=0.359;exitDx=0;exitDy=0;exitPerimeter=0;" parent="1" source="IKMS28P7SB1SvwKWcjxu-7" target="IKMS28P7SB1SvwKWcjxu-4" edge="1">
                    <mxGeometry width="160" relative="1" as="geometry">
                        <mxPoint x="470" y="231" as="sourcePoint"/>
                        <mxPoint x="380" y="230" as="targetPoint"/>
                    </mxGeometry>
                </mxCell>
                <mxCell id="IKMS28P7SB1SvwKWcjxu-33" value="" style="group" parent="1" vertex="1" connectable="0">
                    <mxGeometry x="80" y="585" width="550" height="275" as="geometry"/>
                </mxCell>
                <mxCell id="IKMS28P7SB1SvwKWcjxu-34" value="" style="shape=folder;fontStyle=1;spacingTop=10;tabWidth=120;tabHeight=45;tabPosition=left;html=1;fontSize=17;" parent="IKMS28P7SB1SvwKWcjxu-33" vertex="1">
                    <mxGeometry width="550" height="275.00000000000006" as="geometry"/>
                </mxCell>
                <mxCell id="IKMS28P7SB1SvwKWcjxu-35" value="&lt;font style=&quot;font-size: 16px&quot;&gt;Asignaturas&lt;/font&gt;" style="text;html=1;strokeColor=none;fillColor=none;align=center;verticalAlign=middle;whiteSpace=wrap;rounded=0;fontSize=17;fontStyle=1" parent="IKMS28P7SB1SvwKWcjxu-33" vertex="1">
                    <mxGeometry x="0.0002564102564086568" y="14.99529411764706" width="112.82051282051282" height="22" as="geometry"/>
                </mxCell>
                <mxCell id="URBGPyLyDd7En4laUWbx-1" value="materias" style="swimlane;fontStyle=1;align=center;verticalAlign=top;childLayout=stackLayout;horizontal=1;startSize=26;horizontalStack=0;resizeParent=1;resizeParentMax=0;resizeLast=0;collapsible=1;marginBottom=0;fontSize=13;" parent="IKMS28P7SB1SvwKWcjxu-33" vertex="1">
                    <mxGeometry x="98.72033898305085" y="75" width="180.94067796610167" height="144.16" as="geometry"/>
                </mxCell>
                <mxCell id="URBGPyLyDd7En4laUWbx-2" value="+ nombre: CharField &#10;+ area: CharField&#10;+ grado: CharField&#10;+ profesor: ForeignKey" style="text;strokeColor=none;fillColor=none;align=left;verticalAlign=top;spacingLeft=4;spacingRight=4;overflow=hidden;rotatable=0;points=[[0,0.5],[1,0.5]];portConstraint=eastwest;" parent="URBGPyLyDd7En4laUWbx-1" vertex="1">
                    <mxGeometry y="26" width="180.94067796610167" height="84" as="geometry"/>
                </mxCell>
                <mxCell id="URBGPyLyDd7En4laUWbx-3" value="" style="line;strokeWidth=1;fillColor=none;align=left;verticalAlign=middle;spacingTop=-1;spacingLeft=3;spacingRight=3;rotatable=0;labelPosition=right;points=[];portConstraint=eastwest;" parent="URBGPyLyDd7En4laUWbx-1" vertex="1">
                    <mxGeometry y="110" width="180.94067796610167" height="10" as="geometry"/>
                </mxCell>
                <mxCell id="URBGPyLyDd7En4laUWbx-4" value="+ __str__" style="text;strokeColor=none;fillColor=none;align=left;verticalAlign=top;spacingLeft=4;spacingRight=4;overflow=hidden;rotatable=0;points=[[0,0.5],[1,0.5]];portConstraint=eastwest;" parent="URBGPyLyDd7En4laUWbx-1" vertex="1">
                    <mxGeometry y="120" width="180.94067796610167" height="24.16" as="geometry"/>
                </mxCell>
                <mxCell id="kD1UvT_tuJI7vPogcPwG-1" value="notas" style="swimlane;fontStyle=1;align=center;verticalAlign=top;childLayout=stackLayout;horizontal=1;startSize=26;horizontalStack=0;resizeParent=1;resizeParentMax=0;resizeLast=0;collapsible=1;marginBottom=0;" parent="IKMS28P7SB1SvwKWcjxu-33" vertex="1">
                    <mxGeometry x="344.91525423728814" y="75.16000000000008" width="149.15254237288136" height="144" as="geometry"/>
                </mxCell>
                <mxCell id="kD1UvT_tuJI7vPogcPwG-2" value="+ materia: ForeignKey&#10;+ cuantitativa: FloatField&#10;+ cualitativa: CharField&#10;+ estudiante: CharField" style="text;strokeColor=none;fillColor=none;align=left;verticalAlign=top;spacingLeft=4;spacingRight=4;overflow=hidden;rotatable=0;points=[[0,0.5],[1,0.5]];portConstraint=eastwest;" parent="kD1UvT_tuJI7vPogcPwG-1" vertex="1">
                    <mxGeometry y="26" width="149.15254237288136" height="84" as="geometry"/>
                </mxCell>
                <mxCell id="kD1UvT_tuJI7vPogcPwG-3" value="" style="line;strokeWidth=1;fillColor=none;align=left;verticalAlign=middle;spacingTop=-1;spacingLeft=3;spacingRight=3;rotatable=0;labelPosition=right;points=[];portConstraint=eastwest;" parent="kD1UvT_tuJI7vPogcPwG-1" vertex="1">
                    <mxGeometry y="110" width="149.15254237288136" height="8" as="geometry"/>
                </mxCell>
                <mxCell id="kD1UvT_tuJI7vPogcPwG-4" value="+ __str__" style="text;strokeColor=none;fillColor=none;align=left;verticalAlign=top;spacingLeft=4;spacingRight=4;overflow=hidden;rotatable=0;points=[[0,0.5],[1,0.5]];portConstraint=eastwest;" parent="kD1UvT_tuJI7vPogcPwG-1" vertex="1">
                    <mxGeometry y="118" width="149.15254237288136" height="26" as="geometry"/>
                </mxCell>
                <mxCell id="9JWD9ICUdN62RAVIAEHX-1" value="" style="endArrow=diamondThin;endFill=1;endSize=24;html=1;rounded=0;entryX=1.004;entryY=0.612;entryDx=0;entryDy=0;entryPerimeter=0;exitX=-0.003;exitY=0.614;exitDx=0;exitDy=0;exitPerimeter=0;" parent="IKMS28P7SB1SvwKWcjxu-33" source="kD1UvT_tuJI7vPogcPwG-2" target="URBGPyLyDd7En4laUWbx-2" edge="1">
                    <mxGeometry width="160" relative="1" as="geometry">
                        <mxPoint x="340" y="152" as="sourcePoint"/>
                        <mxPoint x="710" y="35" as="targetPoint"/>
                    </mxGeometry>
                </mxCell>
                <mxCell id="IKMS28P7SB1SvwKWcjxu-37" value="" style="endArrow=diamondThin;endFill=0;endSize=24;html=1;fontSize=17;entryX=0;entryY=0.846;entryDx=0;entryDy=0;entryPerimeter=0;" parent="1" target="IKMS28P7SB1SvwKWcjxu-7" edge="1">
                    <mxGeometry width="160" relative="1" as="geometry">
                        <mxPoint x="240" y="630" as="sourcePoint"/>
                        <mxPoint x="390" y="500" as="targetPoint"/>
                        <Array as="points">
                            <mxPoint x="240" y="420"/>
                        </Array>
                    </mxGeometry>
                </mxCell>
                <mxCell id="kD1UvT_tuJI7vPogcPwG-5" value="" style="shape=folder;fontStyle=1;spacingTop=10;tabWidth=180;tabHeight=50;tabPosition=left;html=1;" parent="1" vertex="1">
                    <mxGeometry x="1130" y="500" width="380" height="260" as="geometry"/>
                </mxCell>
                <mxCell id="kD1UvT_tuJI7vPogcPwG-6" value="Historial" style="text;html=1;strokeColor=none;fillColor=none;align=center;verticalAlign=middle;whiteSpace=wrap;rounded=0;fontSize=16;fontStyle=1" parent="1" vertex="1">
                    <mxGeometry x="1180" y="510" width="60" height="30" as="geometry"/>
                </mxCell>
                <mxCell id="kD1UvT_tuJI7vPogcPwG-7" value="observador" style="swimlane;fontStyle=1;align=center;verticalAlign=top;childLayout=stackLayout;horizontal=1;startSize=26;horizontalStack=0;resizeParent=1;resizeParentMax=0;resizeLast=0;collapsible=1;marginBottom=0;fontSize=12;" parent="1" vertex="1">
                    <mxGeometry x="1220" y="587" width="200" height="150" as="geometry"/>
                </mxCell>
                <mxCell id="kD1UvT_tuJI7vPogcPwG-8" value="+ educando: ForeignKey&#10;+ comentario: TextField&#10;+ periodo: IntegerField" style="text;strokeColor=none;fillColor=none;align=left;verticalAlign=top;spacingLeft=4;spacingRight=4;overflow=hidden;rotatable=0;points=[[0,0.5],[1,0.5]];portConstraint=eastwest;fontSize=12;" parent="kD1UvT_tuJI7vPogcPwG-7" vertex="1">
                    <mxGeometry y="26" width="200" height="84" as="geometry"/>
                </mxCell>
                <mxCell id="kD1UvT_tuJI7vPogcPwG-9" value="" style="line;strokeWidth=1;fillColor=none;align=left;verticalAlign=middle;spacingTop=-1;spacingLeft=3;spacingRight=3;rotatable=0;labelPosition=right;points=[];portConstraint=eastwest;fontSize=16;" parent="kD1UvT_tuJI7vPogcPwG-7" vertex="1">
                    <mxGeometry y="110" width="200" height="8" as="geometry"/>
                </mxCell>
                <mxCell id="kD1UvT_tuJI7vPogcPwG-10" value="+ __str__" style="text;strokeColor=none;fillColor=none;align=left;verticalAlign=top;spacingLeft=4;spacingRight=4;overflow=hidden;rotatable=0;points=[[0,0.5],[1,0.5]];portConstraint=eastwest;fontSize=12;" parent="kD1UvT_tuJI7vPogcPwG-7" vertex="1">
                    <mxGeometry y="118" width="200" height="32" as="geometry"/>
                </mxCell>
                <mxCell id="kD1UvT_tuJI7vPogcPwG-12" value="" style="endArrow=diamondThin;endFill=0;endSize=24;html=1;rounded=0;fontSize=16;edgeStyle=orthogonalEdgeStyle;exitX=0;exitY=0;exitDx=180;exitDy=0;exitPerimeter=0;entryX=1.007;entryY=0.805;entryDx=0;entryDy=0;entryPerimeter=0;" parent="1" source="kD1UvT_tuJI7vPogcPwG-5" target="IKMS28P7SB1SvwKWcjxu-7" edge="1">
                    <mxGeometry width="160" relative="1" as="geometry">
                        <mxPoint x="1230" y="420" as="sourcePoint"/>
                        <mxPoint x="1010" y="390" as="targetPoint"/>
                        <Array as="points">
                            <mxPoint x="1240" y="404"/>
                        </Array>
                    </mxGeometry>
                </mxCell>
                <mxCell id="zmOAIjBvkFk80DA4qa9m-2" value="" style="shape=folder;fontStyle=1;spacingTop=10;tabWidth=180;tabHeight=50;tabPosition=left;html=1;" parent="1" vertex="1">
                    <mxGeometry x="730" y="650" width="370" height="210" as="geometry"/>
                </mxCell>
                <mxCell id="zmOAIjBvkFk80DA4qa9m-3" value="&lt;font style=&quot;font-size: 16px&quot;&gt;&lt;b&gt;Alertas&lt;/b&gt;&lt;/font&gt;" style="text;html=1;strokeColor=none;fillColor=none;align=center;verticalAlign=middle;whiteSpace=wrap;rounded=0;fontSize=17;" parent="1" vertex="1">
                    <mxGeometry x="780" y="660" width="60" height="30" as="geometry"/>
                </mxCell>
                <mxCell id="7K9MtfhFR6tgaj340RUg-7" value="msg" style="swimlane;fontStyle=1;align=center;verticalAlign=top;childLayout=stackLayout;horizontal=1;startSize=26;horizontalStack=0;resizeParent=1;resizeParentMax=0;resizeLast=0;collapsible=1;marginBottom=0;" parent="1" vertex="1">
                    <mxGeometry x="830" y="740" width="160" height="86" as="geometry"/>
                </mxCell>
                <mxCell id="7K9MtfhFR6tgaj340RUg-8" value="+ mensaje: TextField" style="text;strokeColor=none;fillColor=none;align=left;verticalAlign=top;spacingLeft=4;spacingRight=4;overflow=hidden;rotatable=0;points=[[0,0.5],[1,0.5]];portConstraint=eastwest;" parent="7K9MtfhFR6tgaj340RUg-7" vertex="1">
                    <mxGeometry y="26" width="160" height="26" as="geometry"/>
                </mxCell>
                <mxCell id="7K9MtfhFR6tgaj340RUg-9" value="" style="line;strokeWidth=1;fillColor=none;align=left;verticalAlign=middle;spacingTop=-1;spacingLeft=3;spacingRight=3;rotatable=0;labelPosition=right;points=[];portConstraint=eastwest;" parent="7K9MtfhFR6tgaj340RUg-7" vertex="1">
                    <mxGeometry y="52" width="160" height="8" as="geometry"/>
                </mxCell>
                <mxCell id="7K9MtfhFR6tgaj340RUg-10" value="+ __str__" style="text;strokeColor=none;fillColor=none;align=left;verticalAlign=top;spacingLeft=4;spacingRight=4;overflow=hidden;rotatable=0;points=[[0,0.5],[1,0.5]];portConstraint=eastwest;" parent="7K9MtfhFR6tgaj340RUg-7" vertex="1">
                    <mxGeometry y="60" width="160" height="26" as="geometry"/>
                </mxCell>
                <mxCell id="IKMS28P7SB1SvwKWcjxu-26" value="" style="group" parent="1" vertex="1" connectable="0">
                    <mxGeometry x="480" y="90" width="670" height="390" as="geometry"/>
                </mxCell>
                <mxCell id="IKMS28P7SB1SvwKWcjxu-7" value="" style="shape=folder;fontStyle=1;spacingTop=10;tabWidth=140;tabHeight=40;tabPosition=left;html=1;fontSize=17;" parent="IKMS28P7SB1SvwKWcjxu-26" vertex="1">
                    <mxGeometry width="670" height="390" as="geometry"/>
                </mxCell>
                <mxCell id="IKMS28P7SB1SvwKWcjxu-8" value="Usuarios" style="text;html=1;strokeColor=none;fillColor=none;align=center;verticalAlign=middle;whiteSpace=wrap;rounded=0;fontSize=17;fontStyle=1" parent="IKMS28P7SB1SvwKWcjxu-26" vertex="1">
                    <mxGeometry x="62.03703703703704" y="10" width="49.62962962962963" height="20" as="geometry"/>
                </mxCell>
                <mxCell id="IKMS28P7SB1SvwKWcjxu-10" value="perfil" style="swimlane;fontStyle=1;align=center;verticalAlign=top;childLayout=stackLayout;horizontal=1;startSize=30;horizontalStack=0;resizeParent=1;resizeParentMax=0;resizeLast=0;collapsible=1;marginBottom=0;fontSize=15;" parent="IKMS28P7SB1SvwKWcjxu-26" vertex="1">
                    <mxGeometry x="12.41" y="50" width="157.59" height="170" as="geometry">
                        <mxRectangle x="410" y="320" width="70" height="30" as="alternateBounds"/>
                    </mxGeometry>
                </mxCell>
                <mxCell id="IKMS28P7SB1SvwKWcjxu-11" value="+ usuario: ForeignKey&#10;+ nombre: CharField&#10;+ apellido: CharField&#10;+ direccion: CharField&#10;+ telefono: CharField&#10;+ edad: IntegerField" style="text;strokeColor=none;fillColor=none;align=left;verticalAlign=top;spacingLeft=4;spacingRight=4;overflow=hidden;rotatable=0;points=[[0,0.5],[1,0.5]];portConstraint=eastwest;" parent="IKMS28P7SB1SvwKWcjxu-10" vertex="1">
                    <mxGeometry y="30" width="157.59" height="100" as="geometry"/>
                </mxCell>
                <mxCell id="IKMS28P7SB1SvwKWcjxu-12" value="" style="line;strokeWidth=1;fillColor=none;align=left;verticalAlign=middle;spacingTop=-1;spacingLeft=3;spacingRight=3;rotatable=0;labelPosition=right;points=[];portConstraint=eastwest;" parent="IKMS28P7SB1SvwKWcjxu-10" vertex="1">
                    <mxGeometry y="130" width="157.59" height="8" as="geometry"/>
                </mxCell>
                <mxCell id="IKMS28P7SB1SvwKWcjxu-13" value="+ __str__" style="text;strokeColor=none;fillColor=none;align=left;verticalAlign=top;spacingLeft=4;spacingRight=4;overflow=hidden;rotatable=0;points=[[0,0.5],[1,0.5]];portConstraint=eastwest;" parent="IKMS28P7SB1SvwKWcjxu-10" vertex="1">
                    <mxGeometry y="138" width="157.59" height="32" as="geometry"/>
                </mxCell>
                <mxCell id="IKMS28P7SB1SvwKWcjxu-14" value="alumno" style="swimlane;fontStyle=1;align=center;verticalAlign=top;childLayout=stackLayout;horizontal=1;startSize=31;horizontalStack=0;resizeParent=1;resizeParentMax=0;resizeLast=0;collapsible=1;marginBottom=0;fontSize=15;" parent="IKMS28P7SB1SvwKWcjxu-26" vertex="1">
                    <mxGeometry x="317.0025925925927" y="63" width="198.5185185185185" height="144" as="geometry"/>
                </mxCell>
                <mxCell id="IKMS28P7SB1SvwKWcjxu-15" value="+ id: IntegerField&#10;+ nombre: ForeignKey&#10;+ padres: CharField&#10;+ acudiente: CharField&#10;+ grado: CharField" style="text;strokeColor=none;fillColor=none;align=left;verticalAlign=top;spacingLeft=4;spacingRight=4;overflow=hidden;rotatable=0;points=[[0,0.5],[1,0.5]];portConstraint=eastwest;" parent="IKMS28P7SB1SvwKWcjxu-14" vertex="1">
                    <mxGeometry y="31" width="198.5185185185185" height="79" as="geometry"/>
                </mxCell>
                <mxCell id="IKMS28P7SB1SvwKWcjxu-16" value="" style="line;strokeWidth=1;fillColor=none;align=left;verticalAlign=middle;spacingTop=-1;spacingLeft=3;spacingRight=3;rotatable=0;labelPosition=right;points=[];portConstraint=eastwest;" parent="IKMS28P7SB1SvwKWcjxu-14" vertex="1">
                    <mxGeometry y="110" width="198.5185185185185" height="8" as="geometry"/>
                </mxCell>
                <mxCell id="IKMS28P7SB1SvwKWcjxu-17" value="+ __str__" style="text;strokeColor=none;fillColor=none;align=left;verticalAlign=top;spacingLeft=4;spacingRight=4;overflow=hidden;rotatable=0;points=[[0,0.5],[1,0.5]];portConstraint=eastwest;" parent="IKMS28P7SB1SvwKWcjxu-14" vertex="1">
                    <mxGeometry y="118" width="198.5185185185185" height="26" as="geometry"/>
                </mxCell>
                <mxCell id="IKMS28P7SB1SvwKWcjxu-24" value="" style="endArrow=diamondThin;endFill=1;endSize=24;html=1;fontSize=17;exitX=-0.007;exitY=0.298;exitDx=0;exitDy=0;exitPerimeter=0;entryX=1.009;entryY=0.394;entryDx=0;entryDy=0;entryPerimeter=0;" parent="IKMS28P7SB1SvwKWcjxu-26" source="IKMS28P7SB1SvwKWcjxu-15" target="IKMS28P7SB1SvwKWcjxu-11" edge="1">
                    <mxGeometry width="160" relative="1" as="geometry">
                        <mxPoint x="24.814814814814817" y="320" as="sourcePoint"/>
                        <mxPoint x="200" y="118" as="targetPoint"/>
                        <Array as="points">
                            <mxPoint x="220" y="118"/>
                        </Array>
                    </mxGeometry>
                </mxCell>
                <mxCell id="IKMS28P7SB1SvwKWcjxu-25" value="" style="endArrow=diamondThin;endFill=1;endSize=24;html=1;fontSize=17;exitX=0.217;exitY=-0.008;exitDx=0;exitDy=0;exitPerimeter=0;entryX=1.006;entryY=0.994;entryDx=0;entryDy=0;entryPerimeter=0;" parent="IKMS28P7SB1SvwKWcjxu-26" source="IKMS28P7SB1SvwKWcjxu-19" target="IKMS28P7SB1SvwKWcjxu-11" edge="1">
                    <mxGeometry width="160" relative="1" as="geometry">
                        <mxPoint x="366.0185185185186" y="250" as="sourcePoint"/>
                        <mxPoint x="200" y="179" as="targetPoint"/>
                        <Array as="points">
                            <mxPoint x="272.962962962963" y="230"/>
                            <mxPoint x="220" y="230"/>
                            <mxPoint x="220" y="179"/>
                        </Array>
                    </mxGeometry>
                </mxCell>
                <mxCell id="7K9MtfhFR6tgaj340RUg-2" value="padreFamilia" style="swimlane;fontStyle=1;align=center;verticalAlign=top;childLayout=stackLayout;horizontal=1;startSize=26;horizontalStack=0;resizeParent=1;resizeParentMax=0;resizeLast=0;collapsible=1;marginBottom=0;" parent="IKMS28P7SB1SvwKWcjxu-26" vertex="1">
                    <mxGeometry x="37.22" y="290" width="152.78" height="94" as="geometry"/>
                </mxCell>
                <mxCell id="7K9MtfhFR6tgaj340RUg-3" value="+ nombre: ForeignKey" style="text;strokeColor=none;fillColor=none;align=left;verticalAlign=top;spacingLeft=4;spacingRight=4;overflow=hidden;rotatable=0;points=[[0,0.5],[1,0.5]];portConstraint=eastwest;" parent="7K9MtfhFR6tgaj340RUg-2" vertex="1">
                    <mxGeometry y="26" width="152.78" height="34" as="geometry"/>
                </mxCell>
                <mxCell id="7K9MtfhFR6tgaj340RUg-4" value="" style="line;strokeWidth=1;fillColor=none;align=left;verticalAlign=middle;spacingTop=-1;spacingLeft=3;spacingRight=3;rotatable=0;labelPosition=right;points=[];portConstraint=eastwest;" parent="7K9MtfhFR6tgaj340RUg-2" vertex="1">
                    <mxGeometry y="60" width="152.78" height="8" as="geometry"/>
                </mxCell>
                <mxCell id="7K9MtfhFR6tgaj340RUg-5" value="+ __str__" style="text;strokeColor=none;fillColor=none;align=left;verticalAlign=top;spacingLeft=4;spacingRight=4;overflow=hidden;rotatable=0;points=[[0,0.5],[1,0.5]];portConstraint=eastwest;" parent="7K9MtfhFR6tgaj340RUg-2" vertex="1">
                    <mxGeometry y="68" width="152.78" height="26" as="geometry"/>
                </mxCell>
                <mxCell id="7K9MtfhFR6tgaj340RUg-6" value="" style="endArrow=diamondThin;endFill=1;endSize=24;html=1;rounded=0;edgeStyle=orthogonalEdgeStyle;exitX=0.406;exitY=-0.019;exitDx=0;exitDy=0;exitPerimeter=0;entryX=0.552;entryY=1.069;entryDx=0;entryDy=0;entryPerimeter=0;" parent="IKMS28P7SB1SvwKWcjxu-26" source="7K9MtfhFR6tgaj340RUg-2" target="IKMS28P7SB1SvwKWcjxu-13" edge="1">
                    <mxGeometry width="160" relative="1" as="geometry">
                        <mxPoint x="-12.407407407407407" y="240" as="sourcePoint"/>
                        <mxPoint x="149" y="260" as="targetPoint"/>
                        <Array as="points">
                            <mxPoint x="99" y="260"/>
                            <mxPoint x="99" y="260"/>
                        </Array>
                    </mxGeometry>
                </mxCell>
                <mxCell id="IKMS28P7SB1SvwKWcjxu-19" value="docente" style="swimlane;fontStyle=1;align=center;verticalAlign=top;childLayout=stackLayout;horizontal=1;startSize=28;horizontalStack=0;resizeParent=1;resizeParentMax=0;resizeLast=0;collapsible=1;marginBottom=0;fontSize=15;" parent="IKMS28P7SB1SvwKWcjxu-26" vertex="1">
                    <mxGeometry x="230.00259259259266" y="265" width="198.52" height="114" as="geometry"/>
                </mxCell>
                <mxCell id="IKMS28P7SB1SvwKWcjxu-20" value="+id: IntegerField&#10;+nombre: ForeignKey&#10;+ asignatura: CharField&#10;" style="text;strokeColor=none;fillColor=none;align=left;verticalAlign=top;spacingLeft=4;spacingRight=4;overflow=hidden;rotatable=0;points=[[0,0.5],[1,0.5]];portConstraint=eastwest;" parent="IKMS28P7SB1SvwKWcjxu-19" vertex="1">
                    <mxGeometry y="28" width="198.52" height="52" as="geometry"/>
                </mxCell>
                <mxCell id="IKMS28P7SB1SvwKWcjxu-21" value="" style="line;strokeWidth=1;fillColor=none;align=left;verticalAlign=middle;spacingTop=-1;spacingLeft=3;spacingRight=3;rotatable=0;labelPosition=right;points=[];portConstraint=eastwest;" parent="IKMS28P7SB1SvwKWcjxu-19" vertex="1">
                    <mxGeometry y="80" width="198.52" height="8" as="geometry"/>
                </mxCell>
                <mxCell id="IKMS28P7SB1SvwKWcjxu-22" value="+ __str__" style="text;strokeColor=none;fillColor=none;align=left;verticalAlign=top;spacingLeft=4;spacingRight=4;overflow=hidden;rotatable=0;points=[[0,0.5],[1,0.5]];portConstraint=eastwest;" parent="IKMS28P7SB1SvwKWcjxu-19" vertex="1">
                    <mxGeometry y="88" width="198.52" height="26" as="geometry"/>
                </mxCell>
                <mxCell id="7K9MtfhFR6tgaj340RUg-11" value="administrativos" style="swimlane;fontStyle=1;align=center;verticalAlign=top;childLayout=stackLayout;horizontal=1;startSize=26;horizontalStack=0;resizeParent=1;resizeParentMax=0;resizeLast=0;collapsible=1;marginBottom=0;" parent="IKMS28P7SB1SvwKWcjxu-26" vertex="1">
                    <mxGeometry x="480" y="230" width="160" height="114" as="geometry"/>
                </mxCell>
                <mxCell id="7K9MtfhFR6tgaj340RUg-12" value="+id: IntegerField&#10;+ nombre: ForeignKey&#10;+ cargo: CharField&#10;" style="text;strokeColor=none;fillColor=none;align=left;verticalAlign=top;spacingLeft=4;spacingRight=4;overflow=hidden;rotatable=0;points=[[0,0.5],[1,0.5]];portConstraint=eastwest;" parent="7K9MtfhFR6tgaj340RUg-11" vertex="1">
                    <mxGeometry y="26" width="160" height="54" as="geometry"/>
                </mxCell>
                <mxCell id="7K9MtfhFR6tgaj340RUg-13" value="" style="line;strokeWidth=1;fillColor=none;align=left;verticalAlign=middle;spacingTop=-1;spacingLeft=3;spacingRight=3;rotatable=0;labelPosition=right;points=[];portConstraint=eastwest;" parent="7K9MtfhFR6tgaj340RUg-11" vertex="1">
                    <mxGeometry y="80" width="160" height="8" as="geometry"/>
                </mxCell>
                <mxCell id="7K9MtfhFR6tgaj340RUg-14" value="+ __str__" style="text;strokeColor=none;fillColor=none;align=left;verticalAlign=top;spacingLeft=4;spacingRight=4;overflow=hidden;rotatable=0;points=[[0,0.5],[1,0.5]];portConstraint=eastwest;" parent="7K9MtfhFR6tgaj340RUg-11" vertex="1">
                    <mxGeometry y="88" width="160" height="26" as="geometry"/>
                </mxCell>
                <mxCell id="7K9MtfhFR6tgaj340RUg-19" value="" style="endArrow=diamondThin;endFill=1;endSize=24;html=1;rounded=0;edgeStyle=orthogonalEdgeStyle;exitX=-0.006;exitY=0.163;exitDx=0;exitDy=0;exitPerimeter=0;" parent="IKMS28P7SB1SvwKWcjxu-26" source="7K9MtfhFR6tgaj340RUg-11" target="IKMS28P7SB1SvwKWcjxu-11" edge="1">
                    <mxGeometry width="160" relative="1" as="geometry">
                        <mxPoint x="100" y="150" as="sourcePoint"/>
                        <mxPoint x="200" y="150" as="targetPoint"/>
                        <Array as="points">
                            <mxPoint x="479" y="230"/>
                            <mxPoint x="290" y="230"/>
                            <mxPoint x="290" y="150"/>
                        </Array>
                    </mxGeometry>
                </mxCell>
                <mxCell id="9JWD9ICUdN62RAVIAEHX-2" value="" style="endArrow=diamondThin;endFill=1;endSize=24;html=1;rounded=0;exitX=0;exitY=0;exitDx=0;exitDy=90;exitPerimeter=0;" parent="1" source="zmOAIjBvkFk80DA4qa9m-2" edge="1">
                    <mxGeometry width="160" relative="1" as="geometry">
                        <mxPoint x="630" y="550" as="sourcePoint"/>
                        <mxPoint x="630" y="740" as="targetPoint"/>
                    </mxGeometry>
                </mxCell>
            </root>
        </mxGraphModel>
    </diagram>
</mxfile>